# xmcd
# Track frame offsets:
# 175
# 12655
# 24827
# 38230
# 48917
# 61995
# 74855
# 88330
# 100435
# 112187
# 125567
#
# Disc length: 1855 seconds
# Revision: 0
# Processed by: cddbd v1.4PL0 Copyright (c) Steve Scherf et al.
# Submitted via: VisiTrax 2.9.5.180 - For more info visit www.synapsa.com
#
DISCID=a2073d0b
DTITLE=Glen Campbell - The Story Of
DYEAR=1987
DGENRE=
TTITLE0=By The Time I Get To Phoenix
TTITLE1=Homeward Bound
TTITLE2=Where`s The Playground Susie ?
TTITLE3=Elusive Butterfly
TTITLE4=Crying
TTITLE5=Words
TTITLE6=Gentle Of My Mind
TTITLE7=Dreams Of The Everyday Houswife
TTITLE8=The Twelfth Of Never
TTITLE9=Turn Around Look At Me
TTITLE10=The Straight Life
EXTD=K-TEL INTERNATIONAL
EXTT0=
EXTT1=
EXTT2=
EXTT3=
EXTT4=
EXTT5=
EXTT6=
EXTT7=
EXTT8=
EXTT9=
EXTT10=
PLAYORDER=
